<?xml version="1.0" encoding="UTF-8" standalone="no"?>
<svg
   xmlns:dc="http://purl.org/dc/elements/1.1/"
   xmlns:cc="http://creativecommons.org/ns#"
   xmlns:rdf="http://www.w3.org/1999/02/22-rdf-syntax-ns#"
   xmlns:svg="http://www.w3.org/2000/svg"
   xmlns="http://www.w3.org/2000/svg"
   xmlns:sodipodi="http://sodipodi.sourceforge.net/DTD/sodipodi-0.dtd"
   xmlns:inkscape="http://www.inkscape.org/namespaces/inkscape"
   width="100"
   height="100"
   version="1.1"
   id="svg3845"
   sodipodi:docname="ddg_logo.svg"
   inkscape:version="0.92.2 (5c3e80d, 2017-08-06)">
  <metadata
     id="metadata3849">
    <rdf:RDF>
      <cc:Work
         rdf:about="">
        <dc:format>image/svg+xml</dc:format>
        <dc:type
           rdf:resource="http://purl.org/dc/dcmitype/StillImage" />
        <dc:title></dc:title>
      </cc:Work>
    </rdf:RDF>
  </metadata>
  <sodipodi:namedview
     pagecolor="#ffffff"
     bordercolor="#666666"
     borderopacity="1"
     objecttolerance="10"
     gridtolerance="10"
     guidetolerance="10"
     inkscape:pageopacity="0"
     inkscape:pageshadow="2"
     inkscape:window-width="1619"
     inkscape:window-height="1092"
     id="namedview3847"
     showgrid="false"
     inkscape:zoom="7.3468395"
     inkscape:cx="72.711507"
     inkscape:cy="45.166111"
     inkscape:window-x="484"
     inkscape:window-y="5"
     inkscape:window-maximized="0"
     inkscape:current-layer="svg3845" />
  <defs
     id="defs3801">
    <clipPath
       id="a">
      <circle
         cx="127.33"
         cy="78.970001"
         r="52"
         id="circle3787"
         style="fill:#de5833" />
    </clipPath>
    <linearGradient
       id="b"
       gradientUnits="userSpaceOnUse"
       x1="1893.3199"
       y1="-2381.98"
       x2="1901.89"
       y2="-2381.98"
       gradientTransform="matrix(1,0,0,-1,-1788,-2321)">
      <stop
         offset=".01"
         stop-color="#6176b9"
         id="stop3790" />
      <stop
         offset=".69"
         stop-color="#394a9f"
         id="stop3792" />
    </linearGradient>
    <linearGradient
       id="c"
       gradientUnits="userSpaceOnUse"
       x1="1920.27"
       y1="-2379.3701"
       x2="1928.08"
       y2="-2379.3701"
       gradientTransform="matrix(1,0,0,-1,-1788,-2321)">
      <stop
         offset=".01"
         stop-color="#6176b9"
         id="stop3795" />
      <stop
         offset=".69"
         stop-color="#394a9f"
         id="stop3797" />
    </linearGradient>
    <path
       id="d"
       d="m 22.56,180.57 v -24.6 h 8.92 c 8.49,0 12.35,6.24 12.35,12.04 0,6.25 -3.82,12.56 -12.35,12.56 z m 2.84,-2.83 h 6.08 c 6.57,0 9.52,-4.9 9.52,-9.77 0,-4.46 -2.98,-9.27 -9.52,-9.27 H 25.4 Z m 29.66,3.12 c -4.56,0 -7.5,-3.14 -7.5,-8 v -9.55 h 2.65 v 9.52 c 0,3.5 2.04,5.58 5.45,5.58 3.2,-0.03 5.51,-2.48 5.51,-5.83 v -9.27 h 2.66 v 17.26 H 61.4 l -0.15,-3 -0.41,0.52 a 7.2,7.2 0 0 1 -5.8,2.77 z m 21.73,0.03 c -4.5,0 -9.02,-2.77 -9.02,-8.95 0,-5.35 3.62,-8.94 9.02,-8.94 2.36,0 4.43,0.84 6.16,2.5 l -1.67,1.73 a 6.53,6.53 0 0 0 -4.42,-1.72 c -3.77,0 -6.4,2.65 -6.4,6.43 0,4.45 3.2,6.44 6.36,6.44 1.78,0 3.4,-0.63 4.58,-1.79 l 1.73,1.74 a 8.8,8.8 0 0 1 -6.34,2.56 z m 20.9,-0.32 -8.44,-8.43 v 8.43 h -2.62 v -24.56 h 2.62 v 14.86 l 7.37,-7.56 h 3.44 l -8.14,8.14 9.13,9.09 v 0.03 z"
       inkscape:connector-curvature="0" />
  </defs>
  <ellipse
     cx="50"
     cy="49.999607"
     id="circle3803"
     style="fill:#de5833;stroke:#de5833;stroke-width:3.95835066"
     rx="45.520824"
     ry="45.521217" />
  <g
     id="g3833"
     transform="matrix(0.79166655,0,0,0.79167335,-50.8029,-12.518836)">
    <g
       clip-path="url(#a)"
       id="g3809">
      <path
         d="m 138.46,132.53 c -2.51,-4.88 -4.91,-9.37 -6.4,-12.34 -3.96,-7.93 -7.94,-19.11 -6.13,-26.32 0.33,-1.31 -3.73,-48.51 -6.6,-50.03 -3.19,-1.7 -10.12,-3.94 -13.71,-4.54 -2.5,-0.4 -3.07,0.3 -4.12,0.46 0.99,0.1 5.7,2.42 6.61,2.55 -0.91,0.62 -3.6,-0.02 -5.32,0.74 -0.87,0.4 -1.52,1.88 -1.5,2.58 4.9,-0.5 12.56,-0.01 17.1,2 -3.61,0.41 -9.09,0.87 -11.45,2.11 -6.84,3.6 -9.86,12.03 -8.06,22.13 1.79,10.08 9.72,46.85 12.25,59.13 2.52,12.27 31.51,9.7 27.32,1.53 z"
         id="path3805"
         inkscape:connector-curvature="0"
         style="fill:#d5d7d8" />
      <path
         d="m 142.1,133.72 c -3.01,-5.97 -6.08,-11.68 -7.86,-15.22 -3.97,-7.94 -7.93,-19.11 -6.13,-26.32 0.34,-1.31 0.34,-6.67 1.43,-7.38 8.41,-5.5 7.81,-0.19 11.19,-2.65 1.74,-1.27 3.13,-2.8 3.74,-4.9 2.16,-7.58 -3,-20.77 -8.78,-26.54 -1.88,-1.88 -4.76,-3.06 -8.02,-3.68 -1.25,-1.72 -3.27,-3.36 -6.13,-4.89 a 28.86,28.86 0 0 0 -18.27,-2.88 c 1,0.1 3.26,2.14 4.17,2.27 -1.38,0.94 -5.05,0.82 -5.03,2.9 4.92,-0.5 10.3,0.28 14.84,2.3 -3.6,0.4 -6.96,1.3 -9.31,2.54 -6.86,3.6 -8.66,10.81 -6.86,20.91 1.81,10.1 9.74,46.88 12.26,59.13 2.53,12.26 32.5,11.8 28.77,4.41 z"
         id="path3807"
         inkscape:connector-curvature="0"
         style="fill:#ffffff" />
    </g>
    <circle
       r="3.79"
       cx="112.8"
       cy="70.690002"
       id="circle3811"
       style="fill:#2d4f8e" />
    <circle
       r="0.98000002"
       cx="114.49"
       cy="69.43"
       id="circle3813"
       style="fill:#ffffff" />
    <circle
       r="3.25"
       cx="138.12"
       cy="68.440002"
       id="circle3815"
       style="fill:#2d4f8e" />
    <circle
       r="0.83999997"
       cx="139.57001"
       cy="67.360001"
       id="circle3817"
       style="fill:#ffffff" />
    <path
       d="m 113.89,59.72 c 0,0 -2.86,-1.3 -5.63,0.45 -2.77,1.74 -2.67,3.52 -2.67,3.52 0,0 -1.47,-3.28 2.45,-4.89 3.93,-1.6 5.85,0.92 5.85,0.92 z"
       id="path3819"
       style="fill:url(#b)"
       inkscape:connector-curvature="0" />
    <path
       d="m 140.08,59.46 c 0,0 -2.05,-1.17 -3.65,-1.15 -3.27,0.04 -4.16,1.48 -4.16,1.48 0,0 0.55,-3.44 4.73,-2.75 a 4.2,4.2 0 0 1 3.08,2.42 z"
       id="path3821"
       style="fill:url(#c)"
       inkscape:connector-curvature="0" />
    <path
       d="m 124.4,85.3 c 0.38,-2.3 6.3,-6.63 10.5,-6.9 4.2,-0.26 5.5,-0.2 9,-1.04 3.51,-0.83 12.54,-3.08 15.03,-4.24 2.5,-1.15 13.1,0.57 5.63,4.74 -3.23,1.81 -11.94,5.13 -18.17,6.99 -6.22,1.86 -9.99,-1.78 -12.06,1.28 -1.64,2.43 -0.33,5.76 7.1,6.45 10.04,0.93 19.66,-4.52 20.72,-1.62 1.06,2.9 -8.62,6.5 -14.52,6.62 -5.9,0.11 -17.78,-3.9 -19.56,-5.14 -1.79,-1.23 -4.16,-4.13 -3.67,-7.14 z"
       id="path3823"
       inkscape:connector-curvature="0"
       style="fill:#fdd20a" />
    <g
       id="g3831">
      <path
         d="m 128.94,115.6 c 0,0 -14.1,-7.53 -14.33,-4.48 -0.24,3.06 0,15.51 1.64,16.45 1.65,0.94 13.4,-6.1 13.4,-6.1 l -0.7,-5.88 z m 5.4,-0.48 c 0,0 9.64,-7.29 11.76,-6.82 2.11,0.48 2.58,15.51 0.7,16.23 -1.88,0.7 -12.9,-3.81 -12.9,-3.81 l 0.45,-5.6 z"
         id="path3825"
         inkscape:connector-curvature="0"
         style="fill:#65bc46" />
      <path
         d="m 125.53,116.39 c 0,4.93 -0.71,7.05 1.4,7.52 2.12,0.47 6.11,0 7.53,-0.94 1.4,-0.94 0.23,-7.28 -0.24,-8.46 -0.47,-1.18 -8.7,-0.24 -8.7,1.88 z"
         id="path3827"
         inkscape:connector-curvature="0"
         style="fill:#43a244" />
      <path
         d="m 126.43,115.3 c 0,4.93 -0.71,7.04 1.4,7.51 2.11,0.48 6.1,0 7.52,-0.94 1.41,-0.94 0.24,-7.28 -0.23,-8.46 -0.47,-1.18 -8.7,-0.23 -8.7,1.88 z"
         id="path3829"
         inkscape:connector-curvature="0"
         style="fill:#65bc46" />
    </g>
  </g>
  <ellipse
     cx="49.976246"
     cy="50.023354"
     id="circle3835"
     style="fill:none;stroke:#ffffff;stroke-width:3.04792905"
     rx="42.037495"
     ry="42.037861" />
</svg>
